# File created by Blade
# Date/Time:  Thu Jan 22 16:04:59 2015
# Frame Rate: 120.000 fps
#------------------------------------------------------
:FULLY-SPECIFIED
:DEGREES
764
root 4.209187 36.722842 5.280750 8.671199 48.816029 12.235345
RightUpLeg 21.072993 -33.378614 -15.942476
RightLeg -6.430901 -0.000000 0.000000
RightFoot -21.249446 -30.710401 27.726959
RightToeBase 10.323441 -0.000000 -0.000000
LeftUpLeg -12.481383 -34.960466 3.179574
LeftLeg 5.595030 -0.000000 -0.000000
LeftFoot 4.599518 -6.037359 -22.529531
LeftToeBase 1.295923 -0.000000 -0.000000
Spine 7.214773 39.437598 7.021876
RightShoulder 12.141491 2.675820 -41.005045
RightArm 91.801310 -3.434167 23.497748
RightForeArm -16.703776 -0.000000 110.706890
RightHand 14.335629 -0.000000 -7.551776
RightHandThumb1 -24.326973 -0.000000 -32.862282
LeftShoulder -38.987197 38.793226 -0.999167
LeftArm 25.841765 -33.130802 -61.604131
LeftForeArm 29.733497 -0.000000 6.592452
LeftHand -31.501878 0.000000 10.484495
LeftHandThumb1 -26.253704 0.000000 33.147579
Head 23.623277 63.171408 -5.201976
765
root 4.211488 36.723700 5.280532 8.691493 48.920901 12.277567
RightUpLeg 21.099298 -33.407485 -15.963940
RightLeg -6.384622 -0.000000 0.000000
RightFoot -21.275801 -30.756685 27.731792
RightToeBase 10.290997 -0.000000 -0.000000
LeftUpLeg -12.474215 -35.043302 3.155967
LeftLeg 5.582278 -0.000000 -0.000000
LeftFoot 4.631769 -6.021402 -22.519967
LeftToeBase 1.287795 -0.000000 -0.000000
Spine 7.264925 39.571542 7.062962
RightShoulder 12.095386 2.637306 -40.975328
RightArm 91.914493 -3.481229 23.476653
RightForeArm -16.698692 -0.000000 110.703526
RightHand 14.460194 -0.000000 -7.573215
RightHandThumb1 -24.326973 -0.000000 -32.862282
LeftShoulder -38.951955 38.814877 -0.979377
LeftArm 25.708508 -33.063029 -61.539259
LeftForeArm 29.723310 -0.000000 6.624052
LeftHand -31.745245 -0.000000 10.948088
LeftHandThumb1 -26.253704 0.000000 33.147579
Head 23.582590 63.019919 -5.265699
766
root 4.211743 36.724093 5.278589 8.702878 49.024539 12.308327
RightUpLeg 21.122763 -33.422335 -15.970752
RightLeg -6.348104 -0.000000 0.000000
RightFoot -21.346101 -30.809965 27.791801
RightToeBase 10.265828 -0.000000 -0.000000
LeftUpLeg -12.479479 -35.126868 3.147756
LeftLeg 5.582815 -0.000000 -0.000000
LeftFoot 4.665690 -6.030179 -22.539121
LeftToeBase 1.274156 -0.000000 -0.000000
Spine 7.341035 39.640262 7.138663
RightShoulder 12.115244 2.674482 -40.986529
RightArm 92.010860 -3.564583 23.512362
RightForeArm -16.780156 -0.000000 110.699380
RightHand 14.514974 -0.000000 -7.530988
RightHandThumb1 -24.326973 -0.000000 -32.862282
LeftShoulder -39.034572 38.805422 -1.056755
LeftArm 25.618615 -32.992440 -61.476913
LeftForeArm 29.726430 -0.000000 6.577440
LeftHand -31.824693 -0.000000 11.424673
LeftHandThumb1 -26.253704 0.000000 33.147579
Head 23.543820 62.967210 -5.343317
767
root 4.211316 36.723833 5.277741 8.705298 49.127205 12.333446
RightUpLeg 21.150127 -33.464093 -15.986419
RightLeg -6.300902 -0.000000 0.000000
RightFoot -21.346717 -30.855783 27.757665
RightToeBase 10.236398 -0.000000 -0.000000
LeftUpLeg -12.474857 -35.151627 3.129860
LeftLeg 5.585458 -0.000000 -0.000000
LeftFoot 4.707761 -6.077259 -22.532977
LeftToeBase 1.260374 -0.000000 -0.000000
Spine 7.424003 39.706261 7.213598
RightShoulder 12.137917 2.691756 -40.982270
RightArm 92.117014 -3.623562 23.510641
RightForeArm -16.803992 -0.000000 110.707316
RightHand 14.523883 -0.000000 -7.597324
RightHandThumb1 -24.326973 -0.000000 -32.862282
LeftShoulder -39.083419 38.792804 -1.096151
LeftArm 25.457287 -32.899389 -61.411453
LeftForeArm 29.620491 0.000000 6.574952
LeftHand -31.926005 -0.000000 11.818064
LeftHandThumb1 -26.253704 0.000000 33.147579
Head 23.459698 62.905560 -5.472304
768
root 4.208771 36.723706 5.275226 8.716910 49.234314 12.357917
RightUpLeg 21.157724 -33.485878 -15.985092
RightLeg -6.239441 -0.000000 0.000000
RightFoot -21.500031 -30.853989 27.894169
RightToeBase 10.373928 -0.000000 -0.000000
LeftUpLeg -12.494039 -35.210318 3.130397
LeftLeg 5.599295 -0.000000 -0.000000
LeftFoot 4.742418 -6.108933 -22.573407
LeftToeBase 1.338368 -0.000000 -0.000000
Spine 7.497915 39.745993 7.286321
RightShoulder 12.191711 2.739703 -40.976010
RightArm 92.203482 -3.703221 23.520416
RightForeArm -16.838723 -0.000000 110.729102
RightHand 14.578077 0.000000 -7.576709
RightHandThumb1 -24.326973 -0.000000 -32.862282
LeftShoulder -39.185522 38.828224 -1.205483
LeftArm 25.370161 -32.909289 -61.439027
LeftForeArm 29.594965 0.000000 6.558338
LeftHand -31.947955 -0.000000 12.046441
LeftHandThumb1 -26.253704 0.000000 33.147579
Head 23.384202 62.861994 -5.591659
